<?xml version="1.0" encoding="UTF-8" standalone="no"?>
<svg
   id="Capa_1"
   enable-background="new 0 0 511.941 511.941"
   height="256"
   viewBox="0 0 255.9705 255.9705"
   width="256"
   version="1.1"
   sodipodi:docname="logo.svg"
   inkscape:version="1.4.2 (ebf0e940d0, 2025-05-08)"
   xmlns:inkscape="http://www.inkscape.org/namespaces/inkscape"
   xmlns:sodipodi="http://sodipodi.sourceforge.net/DTD/sodipodi-0.dtd"
   xmlns="http://www.w3.org/2000/svg"
   xmlns:svg="http://www.w3.org/2000/svg">
  <defs
     id="defs14" />
  <sodipodi:namedview
     id="namedview14"
     pagecolor="#ffffff"
     bordercolor="#000000"
     borderopacity="0.25"
     inkscape:showpageshadow="2"
     inkscape:pageopacity="0.0"
     inkscape:pagecheckerboard="0"
     inkscape:deskcolor="#d1d1d1"
     inkscape:zoom="1.546875"
     inkscape:cx="256"
     inkscape:cy="256"
     inkscape:window-width="1920"
     inkscape:window-height="1011"
     inkscape:window-x="0"
     inkscape:window-y="0"
     inkscape:window-maximized="1"
     inkscape:current-layer="Capa_1" />
  <g
     id="g14"
     transform="matrix(0.5,0,0,0.5,0,11.295)">
    <path
       d="M 157.253,481.853 H 97.735 c -16.569,0 -30,-13.431 -30,-30 V 391.5 h 135.529 l -16.907,67.629 c -3.338,13.355 -15.338,22.724 -29.104,22.724 z"
       fill="#fbf198"
       id="path1" />
    <path
       d="m 354.688,481.853 h 59.518 c 16.569,0 30,-13.431 30,-30 V 391.5 h -135.53 l 16.907,67.629 c 3.339,13.355 15.339,22.724 29.105,22.724 z"
       fill="#fbf198"
       id="path2" />
    <path
       d="m 504.44,120.441 -3.73,30.12 3.73,30.12 v 105.41 l -4.24,30.12 4.24,30.11 v 30.36 c 0,33.13 -26.86,60 -60,60 H 67.5 c -33.14,0 -60,-26.87 -60,-60 V 90.091 c 0,-33.14 26.86,-60 60,-60 h 376.94 c 33.14,0 60,26.86 60,60 z"
       fill="#6b7790"
       id="path3" />
    <path
       d="M 282.27,436.681 H 67.5 c -33.14,0 -60,-26.87 -60,-60 V 90.091 c 0,-33.14 26.86,-60 60,-60 h 209.71 c -33.92,106.8 -46.37,257.76 5.06,406.59 z"
       fill="#5d6a85"
       id="path4" />
    <path
       d="m 459.21,90.321 v 286.18 c 0,8.28 -6.72,15 -15,15 H 67.68 c -8.29,0 -15,-6.72 -15,-15 V 90.321 c 0,-8.28 6.71,-15 15,-15 h 376.53 c 8.28,0 15,6.72 15,15 z"
       fill="#5d6a85"
       id="path5" />
    <path
       d="M 268.58,391.501 H 67.68 c -8.29,0 -15,-6.72 -15,-15 V 90.321 c 0,-8.28 6.71,-15 15,-15 h 197.14 c -20.95,90.09 -26.02,202.39 3.76,316.18 z"
       fill="#525e77"
       id="path6" />
    <path
       d="m 412.42,233.511 1.41,7.37 c -1.66,25.55 -11.83,48.77 -27.7,66.88 l -7.42,3.85 -3.19,6.76 c -18.11,15.87 -41.33,26.03 -66.87,27.69 l -7.5,-1.52 -7.5,1.52 c -25.55,-1.66 -48.77,-11.83 -66.88,-27.69 l -3.54,-6.89 -7.07,-3.72 c -15.86,-18.11 -26.03,-41.33 -27.69,-66.88 l 1.95,-7.5 -1.95,-7.5 c 1.66,-25.55 11.83,-48.77 27.69,-66.88 l 6.94,-3.01 3.67,-7.59 c 18.11,-15.87 41.33,-26.04 66.88,-27.7 l 7.5,2.1 7.5,-2.1 c 25.54,1.66 48.77,11.83 66.88,27.69 l 2.8,6.71 7.8,3.9 c 15.87,18.11 26.04,41.33 27.7,66.88 z"
       fill="#93bce8"
       id="path7" />
    <circle
       cx="301.147"
       cy="233.383"
       fill="#525e77"
       r="52.706001"
       id="circle7" />
    <path
       d="m 120.441,308.677 c -12.475,0 -22.588,-10.113 -22.588,-22.588 V 180.677 c 0,-12.475 10.113,-22.588 22.588,-22.588 12.475,0 22.588,10.113 22.588,22.588 v 105.412 c 0,12.475 -10.113,22.588 -22.588,22.588 z"
       fill="#fbf198"
       id="path8" />
    <path
       d="m 504.441,346.324 h -45.176 c -16.634,0 -30.118,-13.484 -30.118,-30.118 0,-16.634 13.484,-30.118 30.118,-30.118 h 45.176 z"
       fill="#525e77"
       id="path9" />
    <path
       d="m 504.441,180.677 h -45.176 c -16.634,0 -30.118,-13.484 -30.118,-30.118 0,-16.633 13.484,-30.118 30.118,-30.118 h 45.176 z"
       fill="#525e77"
       id="path10" />
    <path
       d="M 444.441,22.59 H 67.5 C 30.28,22.59 0,52.87 0,90.09 v 286.588 c 0,34.763 26.418,63.465 60.23,67.103 v 8.071 c 0,20.678 16.822,37.5 37.5,37.5 h 59.52 c 17.24,0 32.202,-11.678 36.387,-28.401 l 4.191,-16.772 h 116.285 l 4.192,16.774 c 4.184,16.721 19.146,28.399 36.386,28.399 h 59.52 c 20.678,0 37.5,-16.822 37.5,-37.5 v -8.071 c 33.813,-3.638 60.23,-32.34 60.23,-67.103 V 90.09 c 0,-37.22 -30.28,-67.5 -67.5,-67.5 z m 14.824,316.235 c -12.471,0 -22.618,-10.146 -22.618,-22.618 0,-12.472 10.146,-22.618 22.618,-22.618 h 37.677 v 45.235 h -37.677 z m 0,-210.882 h 37.677 v 45.235 h -37.677 c -12.471,0 -22.618,-10.146 -22.618,-22.618 0,-12.472 10.146,-22.617 22.618,-22.617 z m 37.676,60.235 v 90.412 h -30.23 V 188.178 Z M 179.085,457.312 c -2.51,10.033 -11.489,17.04 -21.834,17.04 H 97.73 c -12.407,0 -22.5,-10.093 -22.5,-22.5 v -7.674 h 107.136 z m 235.126,17.04 h -59.52 c -10.345,0 -19.324,-7.007 -21.834,-17.038 l -3.282,-13.136 h 107.136 v 7.674 c 0,12.407 -10.093,22.5 -22.5,22.5 z m 30.23,-45.174 H 67.5 c -28.949,0 -52.5,-23.551 -52.5,-52.5 V 90.09 c 0,-28.949 23.551,-52.5 52.5,-52.5 h 376.941 c 28.949,0 52.5,23.551 52.5,52.5 v 22.853 h -30.23 V 90.322 c 0,-12.407 -10.093,-22.5 -22.5,-22.5 H 67.681 c -12.407,0 -22.5,10.093 -22.5,22.5 v 286.18 c 0,12.407 10.093,22.5 22.55,22.5 h 288.73 c 4.142,0 7.5,-3.358 7.5,-7.5 0,-4.142 -3.358,-7.5 -7.5,-7.5 H 67.73 c -4.317,0 -7.55,-3.477 -7.55,-7.5 V 90.322 c 0,-4.136 3.364,-7.5 7.5,-7.5 h 376.53 c 4.136,0 7.5,3.364 7.5,7.5 v 23.383 c -17.135,3.507 -30.064,18.699 -30.064,36.855 0,18.156 12.929,33.349 30.064,36.855 v 91.937 c -17.135,3.507 -30.064,18.699 -30.064,36.855 0,18.156 12.929,33.349 30.064,36.855 v 23.439 c 0,4.136 -3.364,7.5 -7.5,7.5 h -52.75 c -4.142,0 -7.5,3.358 -7.5,7.5 0,4.142 3.358,7.5 7.5,7.5 h 52.75 c 12.407,0 22.5,-10.093 22.5,-22.5 v -22.677 h 30.23 v 22.853 c 10e-4,28.95 -23.55,52.501 -52.499,52.501 z"
       id="path11" />
    <path
       d="m 421.588,233.384 c 0,-66.411 -54.03,-120.441 -120.441,-120.441 -66.411,0 -120.441,54.03 -120.441,120.441 0,66.412 54.03,120.441 120.441,120.441 66.412,0 120.441,-54.03 120.441,-120.441 z m -56.572,53.262 c -2.929,-2.929 -7.678,-2.929 -10.606,0 -2.929,2.929 -2.929,7.678 0,10.606 l 15.77,15.77 c -16.74,14.53 -38.091,23.877 -61.532,25.533 v -22.348 c 0,-4.142 -3.358,-7.5 -7.5,-7.5 -4.142,0 -7.5,3.358 -7.5,7.5 v 22.348 c -23.441,-1.656 -44.792,-11.003 -61.532,-25.533 l 15.77,-15.77 c 2.929,-2.929 2.929,-7.677 0,-10.606 -2.928,-2.929 -7.677,-2.929 -10.606,0 l -15.77,15.77 c -14.53,-16.74 -23.877,-38.091 -25.533,-61.532 h 22.348 c 4.142,0 7.5,-3.358 7.5,-7.5 0,-4.142 -3.358,-7.5 -7.5,-7.5 h -22.348 c 1.656,-23.441 11.003,-44.792 25.533,-61.532 l 15.77,15.77 c 2.929,2.929 7.678,2.929 10.606,0 2.929,-2.929 2.929,-7.678 0,-10.606 l -15.77,-15.77 c 16.74,-14.53 38.091,-23.877 61.532,-25.533 v 22.348 c 0,4.142 3.358,7.5 7.5,7.5 4.142,0 7.5,-3.358 7.5,-7.5 v -22.348 c 23.441,1.656 44.792,11.003 61.532,25.533 l -15.77,15.77 c -2.929,2.929 -2.929,7.678 0,10.606 2.929,2.929 7.678,2.929 10.606,0 l 15.77,-15.77 c 14.53,16.74 23.877,38.091 25.533,61.532 h -22.348 c -4.142,0 -7.5,3.358 -7.5,7.5 0,4.142 3.358,7.5 7.5,7.5 h 22.348 c -1.656,23.441 -11.003,44.792 -25.533,61.532 z"
       id="path12" />
    <path
       d="m 301.147,173.178 c -33.197,0 -60.206,27.008 -60.206,60.206 0,33.198 27.008,60.206 60.206,60.206 33.198,0 60.206,-27.008 60.206,-60.206 0,-33.198 -27.008,-60.206 -60.206,-60.206 z m 0,105.412 c -24.926,0 -45.206,-20.279 -45.206,-45.206 0,-24.926 20.279,-45.206 45.206,-45.206 24.927,0 45.206,20.279 45.206,45.206 0,24.926 -20.279,45.206 -45.206,45.206 z"
       id="path13" />
    <path
       d="m 120.441,150.592 c -16.592,0 -30.09,13.498 -30.09,30.09 v 105.41 c 0,16.592 13.499,30.09 30.09,30.09 16.591,0 30.09,-13.498 30.09,-30.09 v -60.27 c 0,-4.142 -3.358,-7.5 -7.5,-7.5 -4.142,0 -7.5,3.358 -7.5,7.5 v 60.27 c 0,8.321 -6.77,15.09 -15.09,15.09 -8.321,0 -15.09,-6.769 -15.09,-15.09 v -105.41 c 0,-8.321 6.77,-15.09 15.09,-15.09 8.31,0 15.09,6.728 15.09,15.09 v 10.14 c 0,4.142 3.358,7.5 7.5,7.5 4.142,0 7.5,-3.358 7.5,-7.5 v -10.14 c 0,-16.675 -13.505,-30.09 -30.09,-30.09 z"
       id="path14" />
  </g>
</svg>
